<svg xmlns="http://www.w3.org/2000/svg" viewBox="0 0 36 36">
  <path fill="#DE2910" d="M36 27V9c0-2.209-1.791-4-4-4H4c-2.209 0-4 1.791-4 4v18c0 2.209 1.791 4 4 4h28c2.209 0 4-1.791 4-4z"/>
  <path fill="#FFDE02" d="M6.5 10.5l.927 2.853h3l-2.427 1.764.927 2.853L6.5 16.206l-2.427 1.764.927-2.853-2.427-1.764h3z"/>
  <path fill="#FFDE02" d="M14.5 7l.309 1.191H16l-.954.693.309 1.191L14.5 9.39l-.855.685.309-1.191L13 8.191h1.191z"/>
  <path fill="#FFDE02" d="M17 11l.309 1.191H18.5l-.954.693.309 1.191L17 13.39l-.855.685.309-1.191L15.5 12.191h1.191z"/>
  <path fill="#FFDE02" d="M17 15l.309 1.191H18.5l-.954.693.309 1.191L17 17.39l-.855.685.309-1.191L15.5 16.191h1.191z"/>
  <path fill="#FFDE02" d="M14.5 18l.309 1.191H16l-.954.693.309 1.191L14.5 20.39l-.855.685.309-1.191L13 19.191h1.191z"/>
</svg>
